<svg width="64" height="64" viewBox="0 0 64 64" fill="none" xmlns="http://www.w3.org/2000/svg">
  <defs>
    <linearGradient id="ob" x1="12" y1="8" x2="48" y2="40" gradientUnits="userSpaceOnUse">
      <stop stop-color="#8b8fff"/>
      <stop offset="0.4" stop-color="#4f55f1"/>
      <stop offset="1" stop-color="#2f34b8"/>
    </linearGradient>
    <linearGradient id="os" x1="20" y1="28" x2="52" y2="56" gradientUnits="userSpaceOnUse">
      <stop stop-color="#ffffff"/>
      <stop offset="0.55" stop-color="#e8eaf0"/>
      <stop offset="1" stop-color="#b8bcc8"/>
    </linearGradient>
    <linearGradient id="oslash" x1="10" y1="48" x2="54" y2="14" gradientUnits="userSpaceOnUse">
      <stop stop-color="#ffffff"/>
      <stop offset="0.45" stop-color="#dfe3f0"/>
      <stop offset="1" stop-color="#6b70ff"/>
    </linearGradient>
  </defs>
  <path d="M48.8 22.5C46.2 14.8 38.9 9.2 30.2 9.2c-11.5 0-20.8 9.3-20.8 20.8 0 2.1.3 4.1.9 6" stroke="url(#ob)" stroke-width="9.5" stroke-linecap="round" fill="none"/>
  <path d="M15.2 41.5C17.8 49.2 25.1 54.8 33.8 54.8c11.5 0 20.8-9.3 20.8-20.8 0-2.1-.3-4.1-.9-6" stroke="url(#os)" stroke-width="9.5" stroke-linecap="round" fill="none"/>
  <path d="M12.5 46.5L51.5 17.5" stroke="url(#oslash)" stroke-width="3.2" stroke-linecap="round"/>
  <path d="M46 15.2L54.2 12.8L49.8 19.6L46 15.2Z" fill="url(#ob)"/>
</svg>
