<svg width="320" height="220" viewBox="0 0 320 220" fill="none" xmlns="http://www.w3.org/2000/svg">
  <rect width="320" height="220" fill="#000000"/>
  <defs>
    <linearGradient id="b" x1="120" y1="20" x2="200" y2="90" gradientUnits="userSpaceOnUse">
      <stop stop-color="#8b8fff"/><stop offset="0.4" stop-color="#4f55f1"/><stop offset="1" stop-color="#2f34b8"/>
    </linearGradient>
    <linearGradient id="s" x1="140" y1="70" x2="210" y2="130" gradientUnits="userSpaceOnUse">
      <stop stop-color="#ffffff"/><stop offset="0.55" stop-color="#e8eaf0"/><stop offset="1" stop-color="#b8bcc8"/>
    </linearGradient>
    <linearGradient id="sl" x1="120" y1="110" x2="210" y2="40" gradientUnits="userSpaceOnUse">
      <stop stop-color="#ffffff"/><stop offset="0.45" stop-color="#dfe3f0"/><stop offset="1" stop-color="#6b70ff"/>
    </linearGradient>
  </defs>
  <g transform="translate(128, 12)">
    <path d="M48.8 22.5C46.2 14.8 38.9 9.2 30.2 9.2c-11.5 0-20.8 9.3-20.8 20.8 0 2.1.3 4.1.9 6" stroke="url(#b)" stroke-width="9.5" stroke-linecap="round" fill="none"/>
    <path d="M15.2 41.5C17.8 49.2 25.1 54.8 33.8 54.8c11.5 0 20.8-9.3 20.8-20.8 0-2.1-.3-4.1-.9-6" stroke="url(#s)" stroke-width="9.5" stroke-linecap="round" fill="none"/>
    <path d="M12.5 46.5L51.5 17.5" stroke="url(#sl)" stroke-width="3.2" stroke-linecap="round"/>
    <path d="M46 15.2L54.2 12.8L49.8 19.6L46 15.2Z" fill="url(#b)"/>
  </g>
  <text x="160" y="130" text-anchor="middle" fill="#ffffff" font-family="system-ui, -apple-system, sans-serif" font-size="36" font-weight="600" letter-spacing="8">
    <tspan fill="#4f55f1">O</tspan>RIGIN
  </text>
  <line x1="88" y1="154" x2="120" y2="154" stroke="#4f55f1" stroke-width="1.5"/>
  <text x="160" y="160" text-anchor="middle" fill="#6b70ff" font-family="system-ui, -apple-system, sans-serif" font-size="13" font-weight="600" letter-spacing="10">STUDIO</text>
  <line x1="200" y1="154" x2="232" y2="154" stroke="#4f55f1" stroke-width="1.5"/>
</svg>
